<svg width="200" height="200" viewBox="0 0 200 200" fill="none" xmlns="http://www.w3.org/2000/svg">
<rect width="200" height="200" fill="#050505"/>
<path d="M41.5469 141H28.7344L57.5234 61H71.4688L100.258 141H87.4453L64.8281 75.5312H64.2031L41.5469 141ZM43.6953 109.672H85.2578V119.828H43.6953V109.672ZM111.811 141V61H140.326C146.55 61 151.706 62.1328 155.795 64.3984C159.883 66.6641 162.943 69.763 164.975 73.6953C167.006 77.6016 168.021 82.0026 168.021 86.8984C168.021 91.8203 166.993 96.2474 164.936 100.18C162.904 104.086 159.831 107.185 155.717 109.477C151.628 111.742 146.485 112.875 140.287 112.875H120.678V102.641H139.193C143.126 102.641 146.316 101.964 148.764 100.609C151.212 99.2292 153.008 97.3542 154.154 94.9844C155.3 92.6146 155.873 89.9193 155.873 86.8984C155.873 83.8776 155.3 81.1953 154.154 78.8516C153.008 76.5078 151.199 74.6719 148.725 73.3438C146.277 72.0156 143.048 71.3516 139.037 71.3516H123.881V141H111.811Z" fill="#00F0FF"/>
</svg>
